<svg viewBox="-31 0 511 511.63622" xmlns="http://www.w3.org/2000/svg"><path d="m208.316406 399.636719c8.839844 0 16-7.164063 16-16 0-8.835938-7.160156-16-16-16-26.507812 0-48 21.488281-48 48 0 26.507812 21.492188 48 48 48 8.839844 0 16-7.164063 16-16 0-8.835938-7.160156-16-16-16-8.835937 0-16-7.164063-16-16 0-8.835938 7.164063-16 16-16zm0 0"></path><path d="m320.316406 367.636719c-4.261718-.003907-8.351562 1.703125-11.351562 4.734375-20.175782-9.695313-44.375-4.15625-58.324219 13.347656-13.953125 17.503906-13.953125 42.328125 0 59.835938 13.949219 17.503906 38.148437 23.039062 58.324219 13.34375 4.566406 4.597656 11.453125 5.988281 17.445312 3.519531 5.992188-2.464844 9.902344-8.300781 9.90625-14.78125v-64c0-8.835938-7.160156-16-16-16zm-32 64c-8.835937 0-16-7.164063-16-16 0-8.835938 7.164063-16 16-16 8.839844 0 16 7.164062 16 16 0 8.835937-7.160156 16-16 16zm0 0"></path><path d="m368.316406 335.636719c-8.835937 0-16 7.164062-16 16v96c0 8.835937 7.164063 16 16 16 8.839844 0 16-7.164063 16-16v-96c0-8.835938-7.160156-16-16-16zm0 0"></path><path d="m139.628906 372.324219c-6.246094-6.246094-16.375-6.246094-22.621094 0l-20.691406 20.6875v-41.375c0-8.835938-7.160156-16-16-16-8.835937 0-16 7.164062-16 16v96c0 8.835937 7.164063 16 16 16 8.839844 0 16-7.164063 16-16v-9.375l20.691406 20.6875c6.277344 6.0625 16.253907 5.976562 22.425782-.195313s6.261718-16.152344.195312-22.429687l-20.6875-20.6875 20.6875-20.6875c6.246094-6.25 6.246094-16.378907 0-22.625zm0 0"></path><path d="m400.316406 287.636719h-97.765625c21.59375-21.015625 33.773438-49.867188 33.765625-80 0-23.296875-14.871094-78.074219-16.566406-84.242188-1.507812-5.480469-5.808594-9.753906-11.304688-11.21875-5.496093-1.464843-11.355468.097657-15.390624 4.101563-5.601563 5.796875-12.832032 9.757812-20.738282 11.359375-6.453125 0-16-4.160157-16-13.082031v-50.917969c0-43.121094-56.628906-62.074219-59.039062-62.847657-4.871094-1.589843-10.207032-.7499995-14.355469 2.261719-4.148437 3.007813-6.601563 7.820313-6.605469 12.945313 0 29.808594-13.902344 55.3125-28.628906 82.304687-16.578125 30.390625-35.371094 64.839844-35.371094 109.335938-.003906 30.132812 12.171875 58.984375 33.769532 80h-97.769532c-26.496094.027343-47.972656 21.5-48 48v128c.027344 26.5 21.503906 47.972656 48 48h352c26.5-.027344 47.976563-21.5 48-48v-128c-.023437-26.5-21.5-47.972657-48-48zm-256-80c0-36.34375 15.28125-64.351563 31.457032-94.007813 13.945312-22.6875 24.167968-47.464844 30.28125-73.382812 9.3125 5.855468 18.261718 14.007812 18.261718 23.390625v50.917969c.859375 25.683593 22.316406 45.835937 48 45.082031 7.753906-.1875 15.363282-2.140625 22.25-5.710938 4.792969 17.585938 8.058594 35.558594 9.75 53.710938 0 44.183593-35.816406 80-80 80-44.179687 0-80-35.816407-80-80zm272 256c0 8.835937-7.160156 16-16 16h-352c-8.835937 0-16-7.164063-16-16v-128c0-8.835938 7.164063-16 16-16h352c8.839844 0 16 7.164062 16 16zm0 0"></path></svg>